<svg width="474" height="535" viewBox="0 0 474 535" fill="none" xmlns="http://www.w3.org/2000/svg">
  <g filter="url(#filter0_d_108_529)">
  <path d="M263.103 201.11L264.25 199.829C267.976 195.665 270.81 190.782 272.577 185.48V185.48C274.239 180.493 274.925 175.231 274.597 169.984L274.017 160.693C273.936 159.397 273.979 158.095 274.147 156.807L274.659 152.888C274.94 150.731 275.966 148.741 277.56 147.261V147.261C279.547 145.416 282.239 144.527 284.934 144.827L288.696 145.245C290.541 145.45 292.342 145.945 294.032 146.714L297.413 148.25C299.318 149.116 301.153 150.127 302.903 151.273L311.865 157.145" stroke="white" stroke-width="10"/>
  <path d="M245.517 207.505L247.875 205.841C250.714 203.837 254.237 203.053 257.658 203.664L261.846 204.412C262.947 204.608 264.023 204.928 265.054 205.364L266.587 206.012C271.159 207.947 274.478 212.017 275.451 216.885L275.893 219.096" stroke="white" stroke-width="17"/>
  <path d="M220.337 223.093L222.314 218.073C224.291 213.057 228.905 209.566 234.27 209.03L239.171 208.54C239.683 208.489 240.358 208.519 241.034 208.582C242.877 208.755 244.706 209.066 246.549 209.241V209.241C251.437 209.706 256.244 210.796 260.855 212.483L264.205 213.708C267.458 214.899 270.573 216.437 273.495 218.297V218.297L278.9 222.351C279.559 222.844 280.164 223.405 280.708 224.022L283.491 227.185C286.727 230.862 287.87 235.933 286.524 240.643L284.686 247.074" stroke="white" stroke-width="18"/>
  <circle cx="229.929" cy="301.07" r="89.9295" fill="url(#paint0_linear_108_529)"/>
  <circle cx="312.664" cy="157.944" r="8.7931" fill="white"/>
  <path d="M299.813 164.278L298.985 170.46C298.896 171.127 299.478 171.69 300.142 171.579L305.588 170.665C306.01 170.594 306.43 170.799 306.633 171.176L309.257 176.035C309.577 176.627 310.379 176.741 310.851 176.26L314.72 172.32C315.019 172.014 315.48 171.933 315.866 172.118L320.845 174.507C321.452 174.798 322.167 174.419 322.266 173.753L323.08 168.291C323.143 167.868 323.468 167.531 323.889 167.454L329.321 166.46C329.983 166.339 330.339 165.611 330.028 165.014L327.475 160.117C327.278 159.738 327.343 159.275 327.638 158.965L331.449 154.968C331.913 154.481 331.773 153.683 331.171 153.383L326.227 150.921C325.844 150.73 325.625 150.317 325.682 149.893L326.415 144.42C326.504 143.753 325.922 143.189 325.258 143.301L319.812 144.215C319.39 144.286 318.97 144.08 318.767 143.704L316.142 138.845C315.823 138.253 315.021 138.139 314.549 138.62L310.179 143.071" stroke="white" stroke-width="3"/>
  </g>
  <defs>
  <filter id="filter0_d_108_529" x="0" y="0.819824" width="473.225" height="534.18" filterUnits="userSpaceOnUse" color-interpolation-filters="sRGB">
  <feFlood flood-opacity="0" result="BackgroundImageFix"/>
  <feColorMatrix in="SourceAlpha" type="matrix" values="0 0 0 0 0 0 0 0 0 0 0 0 0 0 0 0 0 0 127 0" result="hardAlpha"/>
  <feMorphology radius="40" operator="dilate" in="SourceAlpha" result="effect1_dropShadow_108_529"/>
  <feOffset dy="4"/>
  <feGaussianBlur stdDeviation="50"/>
  <feComposite in2="hardAlpha" operator="out"/>
  <feColorMatrix type="matrix" values="0 0 0 0 0.176471 0 0 0 0 0.0352941 0 0 0 0 0.258824 0 0 0 1 0"/>
  <feBlend mode="normal" in2="BackgroundImageFix" result="effect1_dropShadow_108_529"/>
  <feBlend mode="normal" in="SourceGraphic" in2="effect1_dropShadow_108_529" result="shape"/>
  </filter>
  <linearGradient id="paint0_linear_108_529" x1="257" y1="211" x2="214.5" y2="427.5" gradientUnits="userSpaceOnUse">
  <stop stop-color="white"/>
  <stop offset="1" stop-color="#3A0C57"/>
  </linearGradient>
  </defs>
</svg>
