<svg width="36" height="35" viewBox="0 0 36 35" fill="none" xmlns="http://www.w3.org/2000/svg">
<path d="M18 0.5C15.7019 0.5 13.4262 0.952651 11.303 1.83211C9.17984 2.71157 7.25066 4.00061 5.62563 5.62563C2.34374 8.90752 0.5 13.3587 0.5 18C0.5 25.735 5.5225 32.2975 12.47 34.625C13.345 34.765 13.625 34.2225 13.625 33.75V30.7925C8.7775 31.8425 7.745 28.4475 7.745 28.4475C6.94 26.4175 5.8025 25.875 5.8025 25.875C4.21 24.79 5.925 24.825 5.925 24.825C7.675 24.9475 8.6025 26.6275 8.6025 26.6275C10.125 29.2875 12.6975 28.5 13.695 28.08C13.8525 26.9425 14.3075 26.1725 14.7975 25.735C10.9125 25.2975 6.835 23.7925 6.835 17.125C6.835 15.1825 7.5 13.625 8.6375 12.3825C8.4625 11.945 7.85 10.125 8.8125 7.7625C8.8125 7.7625 10.2825 7.29 13.625 9.5475C15.0075 9.1625 16.5125 8.97 18 8.97C19.4875 8.97 20.9925 9.1625 22.375 9.5475C25.7175 7.29 27.1875 7.7625 27.1875 7.7625C28.15 10.125 27.5375 11.945 27.3625 12.3825C28.5 13.625 29.165 15.1825 29.165 17.125C29.165 23.81 25.07 25.28 21.1675 25.7175C21.7975 26.26 22.375 27.3275 22.375 28.955V33.75C22.375 34.2225 22.655 34.7825 23.5475 34.625C30.495 32.28 35.5 25.735 35.5 18C35.5 15.7019 35.0474 13.4262 34.1679 11.303C33.2884 9.17984 31.9994 7.25066 30.3744 5.62563C28.7493 4.00061 26.8202 2.71157 24.697 1.83211C22.5738 0.952651 20.2981 0.5 18 0.5Z" fill="black"/>
</svg>
