<svg width="22" height="20" viewBox="0 0 22 20" fill="none" xmlns="http://www.w3.org/2000/svg">
  <path d="M8 -0.000244141H4V1.99976H2V3.99976H0V9.99976H2V11.9998H4V13.9998H6V15.9998H8V17.9998H10V19.9998H12V17.9998H14V15.9998H16V13.9998H18V11.9998H20V9.99976H22V3.99976H20V1.99976H18V-0.000244141H14V1.99976H12V3.99976H10V1.99976H8V-0.000244141ZM8 1.99976V3.99976H10V5.99976H12V3.99976H14V1.99976H18V3.99976H20V9.99976H18V11.9998H16V13.9998H14V15.9998H12V17.9998H10V15.9998H8V13.9998H6V11.9998H4V9.99976H2V3.99976H4V1.99976H8Z" fill="white"/>
</svg>
