<svg width="36" height="36" viewBox="0 0 36 36" fill="none" xmlns="http://www.w3.org/2000/svg">
<path d="M19.799 0.502153C21.0761 0.497253 22.3531 0.510088 23.6298 0.540653L23.9693 0.552903C24.3613 0.566903 24.748 0.584403 25.2153 0.605403C27.0773 0.692903 28.3478 0.986904 29.4625 1.41915C30.6175 1.86365 31.5905 2.46565 32.5635 3.43865C33.4532 4.31296 34.1417 5.37056 34.5813 6.5379C35.0135 7.65265 35.3075 8.9249 35.395 10.7869C35.416 11.2524 35.4335 11.6409 35.4475 12.0329L35.458 12.3724C35.4891 13.6485 35.5025 14.9249 35.4983 16.2014L35.5 17.5069V19.7994C35.5043 21.0764 35.4909 22.3535 35.4598 23.6302L35.4493 23.9697C35.4353 24.3617 35.4178 24.7484 35.3968 25.2157C35.3093 27.0777 35.0118 28.3482 34.5813 29.4629C34.1432 30.6315 33.4545 31.6899 32.5635 32.5639C31.6885 33.4535 30.6303 34.142 29.4625 34.5817C28.3478 35.0139 27.0773 35.3079 25.2153 35.3954C24.748 35.4164 24.3613 35.4339 23.9693 35.4479L23.6298 35.4584C22.3531 35.4895 21.0761 35.5029 19.799 35.4987L18.4935 35.5004H16.2028C14.9257 35.5047 13.6487 35.4913 12.372 35.4602L12.0325 35.4497C11.6171 35.4346 11.2018 35.4171 10.7865 35.3972C8.92453 35.3097 7.65403 35.0122 6.53753 34.5817C5.36973 34.143 4.31195 33.4543 3.43828 32.5639C2.54761 31.6894 1.85843 30.6311 1.41878 29.4629C0.986533 28.3482 0.692533 27.0777 0.605033 25.2157C0.585543 24.8004 0.568043 24.3851 0.552533 23.9697L0.543783 23.6302C0.51152 22.3535 0.496935 21.0765 0.500033 19.7994V16.2014C0.495149 14.925 0.507984 13.6485 0.538533 12.3724L0.550783 12.0329C0.564783 11.6409 0.582283 11.2524 0.603283 10.7869C0.690783 8.92315 0.984783 7.6544 1.41703 6.5379C1.85694 5.36999 2.54747 4.31268 3.44003 3.4404C4.3131 2.54922 5.37022 1.85941 6.53753 1.41915C7.65403 0.986904 8.92278 0.692903 10.7865 0.605403L12.0325 0.552903L12.372 0.544153C13.6481 0.511906 14.9246 0.497321 16.201 0.500403L19.799 0.502153ZM18 9.25215C16.8407 9.23575 15.6896 9.44994 14.6137 9.88227C13.5379 10.3146 12.5587 10.9564 11.733 11.7705C10.9074 12.5846 10.2517 13.5546 9.80424 14.6242C9.35674 15.6939 9.12629 16.8418 9.12629 18.0013C9.12629 19.1608 9.35674 20.3087 9.80424 21.3783C10.2517 22.448 10.9074 23.418 11.733 24.2321C12.5587 25.0461 13.5379 25.688 14.6137 26.1203C15.6896 26.5526 16.8407 26.7668 18 26.7504C20.3207 26.7504 22.5463 25.8285 24.1872 24.1876C25.8282 22.5466 26.75 20.321 26.75 18.0004C26.75 15.6798 25.8282 13.4542 24.1872 11.8132C22.5463 10.1723 20.3207 9.25215 18 9.25215ZM18 12.7522C18.6974 12.7393 19.3904 12.8655 20.0384 13.1235C20.6865 13.3815 21.2766 13.766 21.7744 14.2546C22.2722 14.7432 22.6676 15.3261 22.9376 15.9692C23.2075 16.6124 23.3466 17.3029 23.3468 18.0004C23.3469 18.6979 23.208 19.3884 22.9382 20.0317C22.6685 20.6749 22.2733 21.2579 21.7756 21.7467C21.278 22.2355 20.688 22.6202 20.0401 22.8784C19.3921 23.1365 18.6992 23.263 18.0018 23.2504C16.6094 23.2504 15.274 22.6973 14.2895 21.7127C13.3049 20.7281 12.7518 19.3928 12.7518 18.0004C12.7518 16.608 13.3049 15.2727 14.2895 14.2881C15.274 13.3035 16.6094 12.7504 18.0018 12.7504L18 12.7522ZM27.1875 6.62715C26.623 6.64975 26.089 6.88992 25.6976 7.29735C25.3061 7.70479 25.0875 8.24789 25.0875 8.8129C25.0875 9.37792 25.3061 9.92102 25.6976 10.3285C26.089 10.7359 26.623 10.9761 27.1875 10.9987C27.7677 10.9987 28.3241 10.7682 28.7343 10.3579C29.1446 9.94771 29.375 9.39131 29.375 8.81115C29.375 8.23099 29.1446 7.67459 28.7343 7.26436C28.3241 6.85412 27.7677 6.62365 27.1875 6.62365V6.62715Z" fill="white"/>
</svg>
