<svg width="420" height="464" viewBox="0 0 420 464" fill="none" xmlns="http://www.w3.org/2000/svg">
  <g filter="url(#filter0_d_106_110)">
  <path d="M228.809 182.652L229.633 181.731C232.311 178.738 234.348 175.228 235.618 171.417V171.417C236.814 167.832 237.307 164.049 237.071 160.278L236.654 153.599C236.595 152.667 236.627 151.731 236.748 150.805L237.115 147.988C237.317 146.438 238.055 145.007 239.201 143.943V143.943C240.629 142.617 242.564 141.978 244.501 142.193L247.206 142.494C248.532 142.641 249.826 142.998 251.041 143.55L253.472 144.655C254.841 145.277 256.16 146.003 257.418 146.828L263.86 151.048" stroke="white" stroke-width="10"/>
  <path d="M216.167 187.249L216.615 186.933C219.454 184.929 222.977 184.145 226.397 184.756L227.699 184.988C228.627 185.154 229.535 185.423 230.404 185.791V185.791C234.259 187.422 237.057 190.855 237.878 194.96L238.003 195.581" stroke="white" stroke-width="17"/>
  <path d="M198.067 198.454L199.488 194.846C200.909 191.24 204.226 188.731 208.082 188.345L211.605 187.993C211.973 187.956 212.459 187.978 212.944 188.023C214.269 188.148 215.584 188.371 216.909 188.497V188.497C220.422 188.831 223.878 189.615 227.193 190.827L229.6 191.708C231.939 192.564 234.178 193.67 236.279 195.007V195.007L240.164 197.921C240.637 198.276 241.073 198.678 241.463 199.122L243.464 201.396C245.79 204.039 246.612 207.684 245.644 211.07L244.324 215.693" stroke="white" stroke-width="18"/>
  <circle cx="204.962" cy="254.507" r="64.6447" fill="url(#paint0_linear_106_110)"/>
  <circle cx="264.435" cy="151.623" r="6.32081" fill="white"/>
  <path d="M255.197 156.175L254.652 160.242C254.563 160.909 255.145 161.472 255.809 161.361L259.15 160.8C259.572 160.729 259.992 160.935 260.195 161.311L261.805 164.292C262.125 164.884 262.927 164.997 263.398 164.517L265.771 162.1C266.071 161.794 266.532 161.714 266.917 161.899L269.972 163.364C270.579 163.655 271.294 163.275 271.393 162.61L271.892 159.259C271.955 158.836 272.281 158.5 272.701 158.423L276.033 157.813C276.696 157.692 277.051 156.964 276.74 156.367L275.175 153.363C274.977 152.984 275.042 152.521 275.338 152.211L277.675 149.759C278.139 149.272 277.999 148.474 277.397 148.174L274.364 146.664C273.981 146.473 273.762 146.06 273.819 145.636L274.269 142.279C274.358 141.611 273.776 141.048 273.112 141.16L269.771 141.72C269.349 141.791 268.929 141.586 268.726 141.209L267.116 138.229C266.796 137.636 265.994 137.523 265.523 138.003L262.648 140.931" stroke="white" stroke-width="3"/>
  </g>
  <g filter="url(#filter1_d_106_110)">
  <path d="M156.367 262.456L147.583 296.152H137.647L132.271 273.976L126.703 296.152H116.767L108.223 262.456H117.007L121.855 286.984L127.855 262.456H136.879L142.639 286.984L147.535 262.456H156.367ZM172.676 296.536C170.052 296.536 167.684 295.976 165.572 294.856C163.492 293.736 161.844 292.136 160.628 290.056C159.444 287.976 158.852 285.544 158.852 282.76C158.852 280.008 159.46 277.592 160.676 275.512C161.892 273.4 163.556 271.784 165.668 270.664C167.78 269.544 170.148 268.984 172.772 268.984C175.396 268.984 177.764 269.544 179.876 270.664C181.988 271.784 183.652 273.4 184.868 275.512C186.084 277.592 186.692 280.008 186.692 282.76C186.692 285.512 186.068 287.944 184.82 290.056C183.604 292.136 181.924 293.736 179.78 294.856C177.668 295.976 175.3 296.536 172.676 296.536ZM172.676 289.432C174.244 289.432 175.572 288.856 176.66 287.704C177.78 286.552 178.34 284.904 178.34 282.76C178.34 280.616 177.796 278.968 176.708 277.816C175.652 276.664 174.34 276.088 172.772 276.088C171.172 276.088 169.844 276.664 168.788 277.816C167.732 278.936 167.204 280.584 167.204 282.76C167.204 284.904 167.716 286.552 168.74 287.704C169.796 288.856 171.108 289.432 172.676 289.432ZM199.254 273.832C200.214 272.36 201.414 271.208 202.854 270.376C204.294 269.512 205.894 269.08 207.654 269.08V277.768H205.398C203.35 277.768 201.814 278.216 200.79 279.112C199.766 279.976 199.254 281.512 199.254 283.72V296.152H191.046V269.368H199.254V273.832ZM209.946 282.712C209.946 279.96 210.458 277.544 211.482 275.464C212.538 273.384 213.962 271.784 215.754 270.664C217.546 269.544 219.546 268.984 221.754 268.984C223.514 268.984 225.114 269.352 226.554 270.088C228.026 270.824 229.178 271.816 230.01 273.064V260.632H238.218V296.152H230.01V292.312C229.242 293.592 228.138 294.616 226.698 295.384C225.29 296.152 223.642 296.536 221.754 296.536C219.546 296.536 217.546 295.976 215.754 294.856C213.962 293.704 212.538 292.088 211.482 290.008C210.458 287.896 209.946 285.464 209.946 282.712ZM230.01 282.76C230.01 280.712 229.434 279.096 228.282 277.912C227.162 276.728 225.786 276.136 224.154 276.136C222.522 276.136 221.13 276.728 219.978 277.912C218.858 279.064 218.298 280.664 218.298 282.712C218.298 284.76 218.858 286.392 219.978 287.608C221.13 288.792 222.522 289.384 224.154 289.384C225.786 289.384 227.162 288.792 228.282 287.608C229.434 286.424 230.01 284.808 230.01 282.76ZM269.404 282.328C269.404 283.096 269.356 283.896 269.26 284.728H250.684C250.812 286.392 251.34 287.672 252.268 288.568C253.228 289.432 254.396 289.864 255.772 289.864C257.82 289.864 259.244 289 260.044 287.272H268.78C268.332 289.032 267.516 290.616 266.332 292.024C265.18 293.432 263.724 294.536 261.964 295.336C260.204 296.136 258.236 296.536 256.06 296.536C253.436 296.536 251.1 295.976 249.052 294.856C247.004 293.736 245.404 292.136 244.252 290.056C243.1 287.976 242.524 285.544 242.524 282.76C242.524 279.976 243.084 277.544 244.204 275.464C245.356 273.384 246.956 271.784 249.004 270.664C251.052 269.544 253.404 268.984 256.06 268.984C258.652 268.984 260.956 269.528 262.972 270.616C264.988 271.704 266.556 273.256 267.676 275.272C268.828 277.288 269.404 279.64 269.404 282.328ZM261.004 280.168C261.004 278.76 260.524 277.64 259.564 276.808C258.604 275.976 257.404 275.56 255.964 275.56C254.588 275.56 253.42 275.96 252.46 276.76C251.532 277.56 250.956 278.696 250.732 280.168H261.004ZM289.574 296.152L284.438 288.712L280.118 296.152H271.238L280.07 282.472L270.998 269.368H280.214L285.35 276.76L289.67 269.368H298.55L289.574 282.856L298.79 296.152H289.574ZM164.056 317.872C166.008 318.288 167.576 319.264 168.76 320.8C169.944 322.304 170.536 324.032 170.536 325.984C170.536 328.8 169.544 331.04 167.56 332.704C165.608 334.336 162.872 335.152 159.352 335.152H143.656V301.456H158.824C162.248 301.456 164.92 302.24 166.84 303.808C168.792 305.376 169.768 307.504 169.768 310.192C169.768 312.176 169.24 313.824 168.184 315.136C167.16 316.448 165.784 317.36 164.056 317.872ZM151.864 315.088H157.24C158.584 315.088 159.608 314.8 160.312 314.224C161.048 313.616 161.416 312.736 161.416 311.584C161.416 310.432 161.048 309.552 160.312 308.944C159.608 308.336 158.584 308.032 157.24 308.032H151.864V315.088ZM157.912 328.528C159.288 328.528 160.344 328.224 161.08 327.616C161.848 326.976 162.232 326.064 162.232 324.88C162.232 323.696 161.832 322.768 161.032 322.096C160.264 321.424 159.192 321.088 157.816 321.088H151.864V328.528H157.912ZM183.504 299.632V335.152H175.296V299.632H183.504ZM187.821 321.712C187.821 318.96 188.333 316.544 189.357 314.464C190.413 312.384 191.837 310.784 193.629 309.664C195.421 308.544 197.421 307.984 199.629 307.984C201.517 307.984 203.165 308.368 204.573 309.136C206.013 309.904 207.117 310.912 207.885 312.16V308.368H216.093V335.152H207.885V331.36C207.085 332.608 205.965 333.616 204.525 334.384C203.117 335.152 201.469 335.536 199.581 335.536C197.405 335.536 195.421 334.976 193.629 333.856C191.837 332.704 190.413 331.088 189.357 329.008C188.333 326.896 187.821 324.464 187.821 321.712ZM207.885 321.76C207.885 319.712 207.309 318.096 206.157 316.912C205.037 315.728 203.661 315.136 202.029 315.136C200.397 315.136 199.005 315.728 197.853 316.912C196.733 318.064 196.173 319.664 196.173 321.712C196.173 323.76 196.733 325.392 197.853 326.608C199.005 327.792 200.397 328.384 202.029 328.384C203.661 328.384 205.037 327.792 206.157 326.608C207.309 325.424 207.885 323.808 207.885 321.76ZM232.927 335.536C230.591 335.536 228.511 335.136 226.687 334.336C224.863 333.536 223.423 332.448 222.367 331.072C221.311 329.664 220.719 328.096 220.591 326.368H228.703C228.799 327.296 229.231 328.048 229.999 328.624C230.767 329.2 231.711 329.488 232.831 329.488C233.855 329.488 234.639 329.296 235.183 328.912C235.759 328.496 236.047 327.968 236.047 327.328C236.047 326.56 235.647 326 234.847 325.648C234.047 325.264 232.751 324.848 230.959 324.4C229.039 323.952 227.439 323.488 226.159 323.008C224.879 322.496 223.775 321.712 222.847 320.656C221.919 319.568 221.455 318.112 221.455 316.288C221.455 314.752 221.871 313.36 222.703 312.112C223.567 310.832 224.815 309.824 226.447 309.088C228.111 308.352 230.079 307.984 232.351 307.984C235.711 307.984 238.351 308.816 240.271 310.48C242.223 312.144 243.343 314.352 243.631 317.104H236.047C235.919 316.176 235.503 315.44 234.799 314.896C234.127 314.352 233.231 314.08 232.111 314.08C231.151 314.08 230.415 314.272 229.903 314.656C229.391 315.008 229.135 315.504 229.135 316.144C229.135 316.912 229.535 317.488 230.335 317.872C231.167 318.256 232.447 318.64 234.175 319.024C236.159 319.536 237.775 320.048 239.023 320.56C240.271 321.04 241.359 321.84 242.287 322.96C243.247 324.048 243.743 325.52 243.775 327.376C243.775 328.944 243.327 330.352 242.431 331.6C241.567 332.816 240.303 333.776 238.639 334.48C237.007 335.184 235.103 335.536 232.927 335.536ZM263.724 328.192V335.152H259.548C256.572 335.152 254.252 334.432 252.588 332.992C250.924 331.52 250.092 329.136 250.092 325.84V315.184H246.828V308.368H250.092V301.84H258.3V308.368H263.676V315.184H258.3V325.936C258.3 326.736 258.492 327.312 258.876 327.664C259.26 328.016 259.9 328.192 260.796 328.192H263.724Z" fill="white"/>
  </g>
  <defs>
  <filter id="filter0_d_106_110" x="0.317383" y="0.203674" width="419.134" height="462.948" filterUnits="userSpaceOnUse" color-interpolation-filters="sRGB">
  <feFlood flood-opacity="0" result="BackgroundImageFix"/>
  <feColorMatrix in="SourceAlpha" type="matrix" values="0 0 0 0 0 0 0 0 0 0 0 0 0 0 0 0 0 0 127 0" result="hardAlpha"/>
  <feMorphology radius="40" operator="dilate" in="SourceAlpha" result="effect1_dropShadow_106_110"/>
  <feOffset dy="4"/>
  <feGaussianBlur stdDeviation="50"/>
  <feComposite in2="hardAlpha" operator="out"/>
  <feColorMatrix type="matrix" values="0 0 0 0 0.176471 0 0 0 0 0.0352941 0 0 0 0 0.258824 0 0 0 1 0"/>
  <feBlend mode="normal" in2="BackgroundImageFix" result="effect1_dropShadow_106_110"/>
  <feBlend mode="normal" in="SourceGraphic" in2="effect1_dropShadow_106_110" result="shape"/>
  </filter>
  <filter id="filter1_d_106_110" x="58.2234" y="214.632" width="290.566" height="174.904" filterUnits="userSpaceOnUse" color-interpolation-filters="sRGB">
  <feFlood flood-opacity="0" result="BackgroundImageFix"/>
  <feColorMatrix in="SourceAlpha" type="matrix" values="0 0 0 0 0 0 0 0 0 0 0 0 0 0 0 0 0 0 127 0" result="hardAlpha"/>
  <feOffset dy="4"/>
  <feGaussianBlur stdDeviation="25"/>
  <feComposite in2="hardAlpha" operator="out"/>
  <feColorMatrix type="matrix" values="0 0 0 0 0 0 0 0 0 0 0 0 0 0 0 0 0 0 0.25 0"/>
  <feBlend mode="normal" in2="BackgroundImageFix" result="effect1_dropShadow_106_110"/>
  <feBlend mode="normal" in="SourceGraphic" in2="effect1_dropShadow_106_110" result="shape"/>
  </filter>
  <linearGradient id="paint0_linear_106_110" x1="224.421" y1="189.761" x2="193.871" y2="345.389" gradientUnits="userSpaceOnUse">
  <stop stop-color="white"/>
  <stop offset="1" stop-color="#3A0C57"/>
  </linearGradient>
  </defs>
</svg>
