<svg width="196" height="139" viewBox="0 0 196 139" fill="none" xmlns="http://www.w3.org/2000/svg">
  <g filter="url(#filter0_d_109_76)">
  <path d="M74.6837 47.152L70.2917 64H65.3237L62.6357 52.912L59.8517 64H54.8837L50.6117 47.152H55.0037L57.4277 59.416L60.4277 47.152H64.9397L67.8197 59.416L70.2677 47.152H74.6837ZM82.8379 64.192C81.5259 64.192 80.3419 63.912 79.2859 63.352C78.2459 62.792 77.4219 61.992 76.8139 60.952C76.2219 59.912 75.9259 58.696 75.9259 57.304C75.9259 55.928 76.2299 54.72 76.8379 53.68C77.4459 52.624 78.2779 51.816 79.3339 51.256C80.3899 50.696 81.5739 50.416 82.8859 50.416C84.1979 50.416 85.3819 50.696 86.4379 51.256C87.4939 51.816 88.3259 52.624 88.9339 53.68C89.5419 54.72 89.8459 55.928 89.8459 57.304C89.8459 58.68 89.5339 59.896 88.9099 60.952C88.3019 61.992 87.4619 62.792 86.3899 63.352C85.3339 63.912 84.1499 64.192 82.8379 64.192ZM82.8379 60.64C83.6219 60.64 84.2859 60.352 84.8299 59.776C85.3899 59.2 85.6699 58.376 85.6699 57.304C85.6699 56.232 85.3979 55.408 84.8539 54.832C84.3259 54.256 83.6699 53.968 82.8859 53.968C82.0859 53.968 81.4219 54.256 80.8939 54.832C80.3659 55.392 80.1019 56.216 80.1019 57.304C80.1019 58.376 80.3579 59.2 80.8699 59.776C81.3979 60.352 82.0539 60.64 82.8379 60.64ZM96.1272 52.84C96.6072 52.104 97.2072 51.528 97.9272 51.112C98.6472 50.68 99.4472 50.464 100.327 50.464V54.808H99.1992C98.1752 54.808 97.4072 55.032 96.8952 55.48C96.3832 55.912 96.1272 56.68 96.1272 57.784V64H92.0232V50.608H96.1272V52.84ZM101.473 57.28C101.473 55.904 101.729 54.696 102.241 53.656C102.769 52.616 103.481 51.816 104.377 51.256C105.273 50.696 106.273 50.416 107.377 50.416C108.257 50.416 109.057 50.6 109.777 50.968C110.513 51.336 111.089 51.832 111.505 52.456V46.24H115.609V64H111.505V62.08C111.121 62.72 110.569 63.232 109.849 63.616C109.145 64 108.321 64.192 107.377 64.192C106.273 64.192 105.273 63.912 104.377 63.352C103.481 62.776 102.769 61.968 102.241 60.928C101.729 59.872 101.473 58.656 101.473 57.28ZM111.505 57.304C111.505 56.28 111.217 55.472 110.641 54.88C110.081 54.288 109.393 53.992 108.577 53.992C107.761 53.992 107.065 54.288 106.489 54.88C105.929 55.456 105.649 56.256 105.649 57.28C105.649 58.304 105.929 59.12 106.489 59.728C107.065 60.32 107.761 60.616 108.577 60.616C109.393 60.616 110.081 60.32 110.641 59.728C111.217 59.136 111.505 58.328 111.505 57.304ZM131.202 57.088C131.202 57.472 131.178 57.872 131.13 58.288H121.842C121.906 59.12 122.17 59.76 122.634 60.208C123.114 60.64 123.698 60.856 124.386 60.856C125.41 60.856 126.122 60.424 126.522 59.56H130.89C130.666 60.44 130.258 61.232 129.666 61.936C129.09 62.64 128.362 63.192 127.482 63.592C126.602 63.992 125.618 64.192 124.53 64.192C123.218 64.192 122.05 63.912 121.026 63.352C120.002 62.792 119.202 61.992 118.626 60.952C118.05 59.912 117.762 58.696 117.762 57.304C117.762 55.912 118.042 54.696 118.602 53.656C119.178 52.616 119.978 51.816 121.002 51.256C122.026 50.696 123.202 50.416 124.53 50.416C125.826 50.416 126.978 50.688 127.986 51.232C128.994 51.776 129.778 52.552 130.338 53.56C130.914 54.568 131.202 55.744 131.202 57.088ZM127.002 56.008C127.002 55.304 126.762 54.744 126.282 54.328C125.802 53.912 125.202 53.704 124.482 53.704C123.794 53.704 123.21 53.904 122.73 54.304C122.266 54.704 121.978 55.272 121.866 56.008H127.002ZM141.287 64L138.719 60.28L136.559 64H132.119L136.535 57.16L131.999 50.608H136.607L139.175 54.304L141.335 50.608H145.775L141.287 57.352L145.895 64H141.287ZM78.5278 75.36C79.5038 75.568 80.2878 76.056 80.8798 76.824C81.4718 77.576 81.7678 78.44 81.7678 79.416C81.7678 80.824 81.2718 81.944 80.2798 82.776C79.3038 83.592 77.9358 84 76.1758 84H68.3278V67.152H75.9118C77.6238 67.152 78.9598 67.544 79.9198 68.328C80.8958 69.112 81.3838 70.176 81.3838 71.52C81.3838 72.512 81.1198 73.336 80.5918 73.992C80.0798 74.648 79.3918 75.104 78.5278 75.36ZM72.4318 73.968H75.1198C75.7918 73.968 76.3038 73.824 76.6558 73.536C77.0238 73.232 77.2078 72.792 77.2078 72.216C77.2078 71.64 77.0238 71.2 76.6558 70.896C76.3038 70.592 75.7918 70.44 75.1198 70.44H72.4318V73.968ZM75.4558 80.688C76.1438 80.688 76.6718 80.536 77.0398 80.232C77.4238 79.912 77.6158 79.456 77.6158 78.864C77.6158 78.272 77.4158 77.808 77.0158 77.472C76.6318 77.136 76.0958 76.968 75.4078 76.968H72.4318V80.688H75.4558ZM88.2522 66.24V84H84.1482V66.24H88.2522ZM90.4103 77.28C90.4103 75.904 90.6663 74.696 91.1783 73.656C91.7063 72.616 92.4183 71.816 93.3143 71.256C94.2103 70.696 95.2103 70.416 96.3143 70.416C97.2583 70.416 98.0823 70.608 98.7863 70.992C99.5063 71.376 100.058 71.88 100.442 72.504V70.608H104.546V84H100.442V82.104C100.042 82.728 99.4823 83.232 98.7623 83.616C98.0583 84 97.2343 84.192 96.2903 84.192C95.2023 84.192 94.2103 83.912 93.3143 83.352C92.4183 82.776 91.7063 81.968 91.1783 80.928C90.6663 79.872 90.4103 78.656 90.4103 77.28ZM100.442 77.304C100.442 76.28 100.154 75.472 99.5783 74.88C99.0183 74.288 98.3303 73.992 97.5143 73.992C96.6983 73.992 96.0023 74.288 95.4263 74.88C94.8663 75.456 94.5863 76.256 94.5863 77.28C94.5863 78.304 94.8663 79.12 95.4263 79.728C96.0023 80.32 96.6983 80.616 97.5143 80.616C98.3303 80.616 99.0183 80.32 99.5783 79.728C100.154 79.136 100.442 78.328 100.442 77.304ZM112.963 84.192C111.795 84.192 110.755 83.992 109.843 83.592C108.931 83.192 108.211 82.648 107.683 81.96C107.155 81.256 106.859 80.472 106.795 79.608H110.851C110.899 80.072 111.115 80.448 111.499 80.736C111.883 81.024 112.355 81.168 112.915 81.168C113.427 81.168 113.819 81.072 114.091 80.88C114.379 80.672 114.523 80.408 114.523 80.088C114.523 79.704 114.323 79.424 113.923 79.248C113.523 79.056 112.875 78.848 111.979 78.624C111.019 78.4 110.219 78.168 109.579 77.928C108.939 77.672 108.387 77.28 107.923 76.752C107.459 76.208 107.227 75.48 107.227 74.568C107.227 73.8 107.435 73.104 107.851 72.48C108.283 71.84 108.907 71.336 109.723 70.968C110.555 70.6 111.539 70.416 112.675 70.416C114.355 70.416 115.675 70.832 116.635 71.664C117.611 72.496 118.171 73.6 118.315 74.976H114.523C114.459 74.512 114.251 74.144 113.899 73.872C113.563 73.6 113.115 73.464 112.555 73.464C112.075 73.464 111.707 73.56 111.451 73.752C111.195 73.928 111.067 74.176 111.067 74.496C111.067 74.88 111.267 75.168 111.667 75.36C112.083 75.552 112.723 75.744 113.587 75.936C114.579 76.192 115.387 76.448 116.011 76.704C116.635 76.944 117.179 77.344 117.643 77.904C118.123 78.448 118.371 79.184 118.387 80.112C118.387 80.896 118.163 81.6 117.715 82.224C117.283 82.832 116.651 83.312 115.819 83.664C115.003 84.016 114.051 84.192 112.963 84.192ZM128.362 80.52V84H126.274C124.786 84 123.626 83.64 122.794 82.92C121.962 82.184 121.546 80.992 121.546 79.344V74.016H119.914V70.608H121.546V67.344H125.65V70.608H128.338V74.016H125.65V79.392C125.65 79.792 125.746 80.08 125.938 80.256C126.13 80.432 126.45 80.52 126.898 80.52H128.362Z" fill="white"/>
  </g>
  <defs>
  <filter id="filter0_d_109_76" x="0.611725" y="0.23999" width="195.283" height="137.952" filterUnits="userSpaceOnUse" color-interpolation-filters="sRGB">
  <feFlood flood-opacity="0" result="BackgroundImageFix"/>
  <feColorMatrix in="SourceAlpha" type="matrix" values="0 0 0 0 0 0 0 0 0 0 0 0 0 0 0 0 0 0 127 0" result="hardAlpha"/>
  <feOffset dy="4"/>
  <feGaussianBlur stdDeviation="25"/>
  <feComposite in2="hardAlpha" operator="out"/>
  <feColorMatrix type="matrix" values="0 0 0 0 0 0 0 0 0 0 0 0 0 0 0 0 0 0 0.25 0"/>
  <feBlend mode="normal" in2="BackgroundImageFix" result="effect1_dropShadow_109_76"/>
  <feBlend mode="normal" in="SourceGraphic" in2="effect1_dropShadow_109_76" result="shape"/>
  </filter>
  </defs>
</svg>
