<svg width="246" height="320" viewBox="0 0 246 320" fill="none"
  xmlns="http://www.w3.org/2000/svg">
  <path d="M134 90L138.064 87.1316C140.902 85.1278 144.425 84.3438 147.846 84.9546L154.843 86.2041C155.944 86.4007 157.02 86.72 158.05 87.156L162.192 88.9082C166.764 90.8424 170.083 94.9132 171.056 99.781L172 104.5" stroke="white" stroke-width="17"/>
  <path d="M112.5 95C86.0305 95 60.4086 104.333 40.1408 121.358C19.873 138.383 6.25732 162.01 1.68852 188.082C-2.88028 214.154 1.89042 241.002 15.1615 263.905C28.4326 286.807 49.3542 304.296 74.2465 313.297C99.1388 322.297 126.408 322.232 151.257 313.113C176.106 303.994 196.944 286.406 210.106 263.44C223.268 240.475 227.911 213.605 223.218 187.554C218.525 161.504 204.797 137.943 184.448 121.015L171.498 136.582C188.183 150.463 199.44 169.784 203.289 191.145C207.137 212.506 203.33 234.54 192.537 253.371C181.744 272.203 164.657 286.625 144.281 294.103C123.904 301.58 101.544 301.634 81.1321 294.253C60.7204 286.873 43.5648 272.532 32.6825 253.752C21.8001 234.972 17.8882 212.956 21.6346 191.577C25.381 170.198 36.5459 150.824 53.1655 136.864C69.7851 122.903 90.795 115.25 112.5 115.25L112.5 95Z" fill="white"/>
  <path d="M102.5 109.5L104.974 103.22C107.446 96.9449 113.219 92.5781 119.93 91.907L127.454 91.1546C128.482 91.0518 129.518 91.0555 130.545 91.1655L143 92.5" stroke="white" stroke-width="18"/>
  <path d="M183 139.5L185.299 131.455C186.982 125.562 185.552 119.219 181.504 114.618L178.023 110.662C177.343 109.889 176.585 109.189 175.762 108.571L169 103.5L163.5 100" stroke="white" stroke-width="18"/>
  <path d="M156 82L157.434 80.3971C162.095 75.1876 165.64 69.0788 167.851 62.4471V62.4471C169.931 56.2075 170.789 49.6256 170.379 43.0613L169.652 31.4391C169.551 29.8168 169.606 28.1885 169.816 26.5767L170.456 21.6744C170.807 18.9766 172.091 16.4867 174.085 14.6355V14.6355C176.571 12.3271 179.938 11.2154 183.31 11.59L188.016 12.1129C190.324 12.3694 192.577 12.9896 194.691 13.9505L198.921 15.8731C201.303 16.9561 203.599 18.2203 205.789 19.6546L217 27" stroke="white" stroke-width="10"/>
  <circle cx="218" cy="28" r="11" fill="white"/>
  <path d="M154.763 140.164C170.526 150.058 182.319 165.169 188.087 182.865C193.854 200.56 193.23 219.719 186.324 237.001C179.417 254.284 166.666 268.596 150.291 277.443C133.917 286.291 114.958 289.113 96.7164 285.417C112.849 288.685 129.018 281.825 143.5 274C157.982 266.175 171.682 248.876 177.79 233.591C183.899 218.306 186.101 197.65 181 182C175.899 166.35 168.704 148.914 154.763 140.164Z" fill="white"/>
  <path d="M201.923 35.9228L200.842 43.9941C200.753 44.6613 201.335 45.2245 201.999 45.113L209.324 43.8834C209.746 43.8126 210.166 44.018 210.37 44.3945L213.899 50.9302C214.219 51.5225 215.021 51.6359 215.493 51.1555L220.697 45.855C220.996 45.5497 221.457 45.4689 221.843 45.6539L228.54 48.8667C229.147 49.1579 229.862 48.7783 229.962 48.1124L231.056 40.7655C231.119 40.3424 231.444 40.0062 231.865 39.9292L239.172 38.5919C239.834 38.4707 240.189 37.743 239.878 37.146L236.445 30.559C236.247 30.1797 236.313 29.7165 236.608 29.4069L241.733 24.0303C242.198 23.543 242.058 22.7452 241.455 22.4451L234.806 19.1341C234.423 18.9434 234.204 18.5302 234.261 18.1062L235.247 10.7439C235.336 10.0767 234.754 9.51356 234.09 9.625L226.764 10.8546C226.343 10.9254 225.922 10.72 225.719 10.3436L222.189 3.80785C221.869 3.21551 221.067 3.10209 220.596 3.58248L214.891 9.39352" stroke="white" stroke-width="3"/>
</svg>
