<svg width="246" height="320" viewBox="0 0 246 320" fill="none"
  xmlns="http://www.w3.org/2000/svg">
  <path d="M134 89.4522L138.064 86.5838C140.902 84.58 144.425 83.796 147.846 84.4068L154.843 85.6563C155.944 85.8529 157.02 86.1722 158.05 86.6082L162.192 88.3604C166.764 90.2946 170.083 94.3654 171.056 99.2332L172 103.952" stroke="white" stroke-width="17"/>
  <path d="M225 206.952C225 269.084 174.632 319.452 112.5 319.452C50.368 319.452 0 269.084 0 206.952C0 144.82 50.368 94.4522 112.5 94.4522C174.632 94.4522 225 144.82 225 206.952ZM34.9917 206.952C34.9917 249.759 69.6934 284.461 112.5 284.461C155.307 284.461 190.008 249.759 190.008 206.952C190.008 164.146 155.307 129.444 112.5 129.444C69.6934 129.444 34.9917 164.146 34.9917 206.952Z" fill="white"/>
  <path d="M102.5 108.952L104.974 102.672C107.446 96.3971 113.219 92.0303 119.93 91.3592L126.061 90.7461C128.002 90.552 129.962 90.7382 131.831 91.2943L169.5 102.5" stroke="white" stroke-width="18"/>
  <path d="M183 138.952L185.299 130.907C186.982 125.015 185.552 118.671 181.504 114.071L178.023 110.114C177.343 109.342 176.585 108.641 175.762 108.024L169 102.952L163.5 99.4522" stroke="white" stroke-width="18"/>
  <path d="M156 81.4522L157.434 79.8493C162.095 74.6398 165.64 68.531 167.851 61.8993V61.8993C169.931 55.6597 170.789 49.0778 170.379 42.5135L169.652 30.8913C169.551 29.269 169.606 27.6407 169.816 26.0289L170.456 21.1266C170.807 18.4288 172.091 15.9389 174.085 14.0877V14.0877C176.571 11.7793 179.938 10.6676 183.31 11.0422L188.016 11.5651C190.324 11.8216 192.577 12.4418 194.691 13.4027L198.921 15.3253C201.303 16.4083 203.599 17.6725 205.789 19.1068L217 26.4522" stroke="white" stroke-width="10"/>
  <circle cx="218" cy="27.4522" r="11" fill="white"/>
  <path d="M201.923 35.375L200.842 43.4463C200.753 44.1135 201.335 44.6767 201.999 44.5652L209.324 43.3357C209.746 43.2648 210.166 43.4702 210.37 43.8467L213.899 50.3824C214.219 50.9747 215.021 51.0881 215.493 50.6078L220.697 45.3072C220.996 45.0019 221.457 44.9211 221.843 45.1061L228.54 48.3189C229.147 48.6101 229.862 48.2305 229.962 47.5646L231.056 40.2177C231.119 39.7946 231.444 39.4584 231.865 39.3814L239.172 38.0441C239.834 37.9229 240.189 37.1952 239.878 36.5982L236.445 30.0112C236.247 29.6319 236.313 29.1687 236.608 28.8591L241.733 23.4825C242.198 22.9952 242.058 22.1974 241.455 21.8973L234.806 18.5863C234.423 18.3956 234.204 17.9824 234.261 17.5584L235.247 10.1962C235.336 9.52892 234.754 8.96577 234.09 9.07721L226.764 10.3068C226.343 10.3776 225.922 10.1722 225.719 9.79578L222.189 3.26006C221.869 2.66772 221.067 2.5543 220.596 3.03469L214.891 8.84573" stroke="white" stroke-width="3"/>
  <circle cx="98.5" cy="195.5" r="79.5" fill="white"/>
</svg>
